HIERARCHY
ROOT Hips
{
	OFFSET -0.001795 -0.223333 0.028219
	CHANNELS 6 Xposition Yposition Zposition Zrotation Yrotation Xrotation 
	JOINT LeftUpLeg
	{
		OFFSET 0.069520 -0.091406 -0.006815
		CHANNELS 3 Zrotation Yrotation Xrotation
		JOINT LeftLeg
		{
			OFFSET 0.034277 -0.375199 -0.004496
			CHANNELS 3 Zrotation Yrotation Xrotation
			JOINT LeftFoot
			{
				OFFSET -0.013596 -0.397961 -0.043693
				CHANNELS 3 Zrotation Yrotation Xrotation
				JOINT LeftToe
				{
					OFFSET 0.026358 -0.055791 0.119288
					CHANNELS 3 Zrotation Yrotation Xrotation
					End Site
					{
						OFFSET 0.000000 0.000000 0.000000
					}
				}
			}
		}
	}
	JOINT RightUpLeg
	{
		OFFSET -0.067670 -0.090522 -0.004320
		CHANNELS 3 Zrotation Yrotation Xrotation
		JOINT RightLeg
		{
			OFFSET -0.038290 -0.382569 -0.008850
			CHANNELS 3 Zrotation Yrotation Xrotation
			JOINT RightFoot
			{
				OFFSET 0.015774 -0.398415 -0.042312
				CHANNELS 3 Zrotation Yrotation Xrotation
				JOINT RightToe
				{
					OFFSET -0.025372 -0.048144 0.123348
					CHANNELS 3 Zrotation Yrotation Xrotation
					End Site
					{
						OFFSET 0.000000 0.000000 0.000000
					}
				}
			}
		}
	}
	JOINT Spine
	{
		OFFSET -0.002533 0.108963 -0.026696
		CHANNELS 3 Zrotation Yrotation Xrotation
		JOINT Spine1
		{
			OFFSET 0.005487 0.135180 0.001092
			CHANNELS 3 Zrotation Yrotation Xrotation
			JOINT Spine2
			{
				OFFSET 0.001457 0.052922 0.025425
				CHANNELS 3 Zrotation Yrotation Xrotation
				JOINT Neck
				{
					OFFSET -0.002778 0.213870 -0.042857
					CHANNELS 3 Zrotation Yrotation Xrotation
					JOINT Head
					{
						OFFSET 0.005152 0.064970 0.051349
						CHANNELS 3 Zrotation Yrotation Xrotation
						End Site
						{
							OFFSET 0.000000 0.000000 0.000000
						}
					}
				}
				JOINT LeftShoulder
				{
					OFFSET 0.078845 0.121749 -0.034090
					CHANNELS 3 Zrotation Yrotation Xrotation
					JOINT LeftArm
					{
						OFFSET 0.090977 0.030469 -0.008868
						CHANNELS 3 Zrotation Yrotation Xrotation
						JOINT LeftForeArm
						{
							OFFSET 0.259612 -0.012772 -0.027456
							CHANNELS 3 Zrotation Yrotation Xrotation
							JOINT LeftHand
							{
								OFFSET 0.249234 0.008986 -0.001171
								CHANNELS 3 Zrotation Yrotation Xrotation
								End Site
								{
									OFFSET 0.000000 0.000000 0.000000
								}
							}
						}
					}
				}
				JOINT RightShoulder
				{
					OFFSET -0.081759 0.118833 -0.038615
					CHANNELS 3 Zrotation Yrotation Xrotation
					JOINT RightArm
					{
						OFFSET -0.096012 0.032551 -0.009143
						CHANNELS 3 Zrotation Yrotation Xrotation
						JOINT RightForeArm
						{
							OFFSET -0.253742 -0.013329 -0.021401
							CHANNELS 3 Zrotation Yrotation Xrotation
							JOINT RightHand
							{
								OFFSET -0.255298 0.007772 -0.005559
								CHANNELS 3 Zrotation Yrotation Xrotation
								End Site
								{
									OFFSET 0.000000 0.000000 0.000000
								}
							}
						}
					}
				}
			}
		}
	}
}
MOTION
Frames: 16
Frame Time: 0.050000
0.000000 0.957492 0.000000 0.757289 -1.688544 -0.979494 5.825471 0.179026 4.977879 -4.466945 0.489679 -3.824179 9.653160 19.794119 21.176813 0.000000 0.000000 0.000000 -12.839345 0.235098 -8.799728 4.732267 -0.486185 5.052573 -17.600596 -30.578389 35.146781 0.000000 0.000000 0.000000 6.377463 -1.947278 20.414538 -4.984056 1.792539 -24.227483 -1.389125 6.285168 25.729838 14.706741 -6.732569 -24.526266 0.000000 0.000000 0.000000 -13.709359 -13.974020 5.032630 -44.359274 -18.589848 -0.628339 -19.503672 -35.020304 7.457218 0.000000 0.000000 0.000000 27.029139 1.606038 1.284199 51.231553 15.090461 -1.620319 6.374517 33.053324 3.812630 0.000000 0.000000 0.000000 
-0.018154 0.954815 0.006153 1.280325 -2.883362 0.374956 5.909387 0.162042 4.549533 -4.047446 0.465124 -4.598055 10.631186 20.903277 22.127381 0.000000 0.000000 0.000000 -12.571951 0.331558 -9.531934 4.613401 -0.448311 5.135356 -18.778353 -32.025169 34.550359 0.000000 0.000000 0.000000 7.127717 -2.062165 20.423953 -5.298302 1.802495 -26.022865 -0.450133 6.562401 25.976025 13.218964 -5.746272 -24.828687 0.000000 0.000000 0.000000 -13.650180 -13.619720 4.977244 -45.190038 -18.468966 -0.667014 -21.475293 -35.877162 8.380626 0.000000 0.000000 0.000000 25.832879 1.214811 0.803804 52.086783 14.784736 -1.571054 6.648067 34.312348 4.041981 0.000000 0.000000 0.000000 
-0.037626 0.954704 0.012213 2.419854 -4.017259 0.499939 6.066257 0.166211 4.309996 -4.582327 0.528748 -2.694488 10.349473 20.446802 21.723080 0.000000 0.000000 0.000000 -13.066163 0.372082 -8.854409 6.159111 -0.630839 3.811604 -19.652610 -33.510008 32.111064 0.000000 0.000000 0.000000 7.766702 -2.118139 20.344324 -4.278764 1.549437 -26.349021 -1.458574 8.284072 26.032725 13.598997 -5.535952 -26.165111 0.000000 0.000000 0.000000 -14.539250 -13.593469 4.784930 -44.913147 -18.994037 -0.480786 -20.836430 -34.721223 7.809743 0.000000 0.000000 0.000000 25.433221 0.379059 0.675471 50.602854 16.416721 -1.099079 7.951402 35.097761 4.662758 0.000000 0.000000 0.000000 
-0.058256 0.954029 0.017760 3.153277 -5.049405 -0.096999 6.556758 0.166514 4.035339 -5.119233 0.623446 -0.236765 11.356913 21.576768 23.107529 0.000000 0.000000 0.000000 -12.695567 0.418253 -8.389307 6.340041 -0.634584 3.975321 -19.787007 -34.002870 30.715583 0.000000 0.000000 0.000000 9.183551 -2.550061 22.733700 -5.701581 1.850640 -27.106489 -1.624716 7.281693 26.127398 12.770792 -5.391418 -25.602489 0.000000 0.000000 0.000000 -13.781988 -13.147005 4.880578 -46.216783 -19.552887 -0.310039 -20.133793 -35.962093 8.047841 0.000000 0.000000 0.000000 25.121982 1.546561 0.871260 49.575729 19.186908 0.136327 6.553103 35.895602 4.188309 0.000000 0.000000 0.000000 
-0.078933 0.955445 0.022524 3.868813 -6.447099 -0.262455 7.601255 0.076717 1.288812 -5.875445 0.884499 5.632807 11.143916 21.032619 25.565531 0.000000 0.000000 0.000000 -12.540662 0.478564 -8.216169 6.764190 -0.646510 3.240019 -19.853897 -34.120977 30.817645 0.000000 0.000000 0.000000 9.790354 -2.705136 23.994418 -5.141178 1.709771 -27.384300 -1.892106 7.665795 25.579253 12.212244 -5.124617 -25.300756 0.000000 0.000000 0.000000 -14.098809 -13.443354 5.090382 -46.496980 -19.635810 -0.206245 -20.073483 -36.365616 8.150617 0.000000 0.000000 0.000000 23.970858 2.640845 1.401064 49.106636 21.130678 1.020747 6.189139 36.803175 4.139912 0.000000 0.000000 0.000000 
-0.097958 0.957466 0.027555 4.066479 -8.465129 -0.040123 9.114751 0.071006 -1.677143 -6.971470 1.400988 11.100029 12.277050 21.969742 28.557715 0.000000 0.000000 0.000000 -11.589254 0.577076 -8.470025 6.273659 -0.552623 3.160246 -17.741120 -32.284149 29.112973 0.000000 0.000000 0.000000 10.143173 -2.771461 25.253305 -4.489173 1.542764 -27.532490 -1.812088 8.014012 24.656083 10.558653 -4.074990 -25.817651 0.000000 0.000000 0.000000 -14.664141 -12.352184 4.708642 -47.541407 -18.954752 -0.352041 -20.484725 -37.179497 8.580976 0.000000 0.000000 0.000000 22.999685 3.243981 1.486545 48.145769 23.032356 1.883304 5.650826 35.737723 3.708810 0.000000 0.000000 0.000000 
-0.115145 0.959416 0.034622 4.981584 -9.870378 -0.173059 9.533734 0.102081 -3.954172 -7.649643 1.825663 14.042707 13.873767 23.276033 32.478182 0.000000 0.000000 0.000000 -11.773651 0.622534 -7.511287 5.771491 -0.472429 2.439722 -14.698212 -29.299385 26.440011 0.000000 0.000000 0.000000 10.468343 -2.694721 24.844890 -5.226540 1.689050 -26.951735 -1.721429 7.898348 24.767058 10.770821 -4.359095 -25.790507 0.000000 0.000000 0.000000 -15.427604 -12.295716 4.918219 -47.810687 -19.046244 -0.333654 -20.645742 -37.546228 8.839402 0.000000 0.000000 0.000000 22.024930 3.596326 1.406462 48.518575 24.187725 2.475819 5.693291 34.834655 3.529078 0.000000 0.000000 0.000000 
-0.130477 0.961638 0.043595 5.488844 -11.195902 -0.454083 9.143058 0.105817 -5.373489 -8.109076 2.078454 14.675190 15.512297 24.904183 32.107731 0.000000 0.000000 0.000000 -11.307085 0.652743 -6.098200 5.153894 -0.393768 1.111962 -13.105946 -27.588780 25.239633 0.000000 0.000000 0.000000 10.302542 -2.543497 24.687457 -5.006235 1.622186 -27.064147 -1.800778 8.557259 24.938741 11.276501 -4.680269 -25.825087 0.000000 0.000000 0.000000 -16.448409 -12.262816 4.980746 -48.022410 -18.916706 -0.405970 -19.363329 -37.050937 8.288624 0.000000 0.000000 0.000000 22.380705 3.734852 1.445468 48.136824 25.117195 2.799270 4.687500 32.971315 2.988440 0.000000 0.000000 0.000000 
-0.143879 0.962394 0.053761 6.062321 -12.567810 -1.135756 7.694463 0.033348 -5.528899 -7.569384 1.757966 11.508530 15.538387 25.279371 27.975935 0.000000 0.000000 0.000000 -11.086433 0.675477 -4.811897 4.817892 -0.349226 0.604422 -12.249544 -26.680683 24.271302 0.000000 0.000000 0.000000 10.203019 -2.421580 24.977782 -5.489072 1.717447 -27.272715 -1.720386 9.177494 25.453637 11.053511 -4.658122 -25.536711 0.000000 0.000000 0.000000 -16.634419 -12.858517 5.364606 -48.169674 -19.686925 -0.163219 -18.716815 -36.107597 7.856889 0.000000 0.000000 0.000000 22.259889 4.363370 1.758677 47.875469 24.916954 2.635448 5.049586 30.848845 2.813588 0.000000 0.000000 0.000000 
-0.155046 0.961954 0.064459 6.498529 -14.022881 -1.444517 6.046553 -0.095373 -6.334666 -5.880438 1.132363 7.096226 12.301780 21.557452 23.924433 0.000000 0.000000 0.000000 -10.917607 0.708925 -3.809527 4.660027 -0.320124 -0.017594 -11.568737 -25.953482 23.026745 0.000000 0.000000 0.000000 9.926620 -2.236344 24.667899 -5.795380 1.763560 -25.845330 -2.049511 10.017252 24.691643 11.355432 -4.782154 -25.588875 0.000000 0.000000 0.000000 -17.045000 -13.270104 5.575458 -48.011318 -19.901174 -0.014823 -17.571293 -35.577789 7.335913 0.000000 0.000000 0.000000 21.912802 4.482088 1.795242 48.490355 24.424105 2.604636 4.888099 29.397865 2.600002 0.000000 0.000000 0.000000 
-0.163881 0.961050 0.075062 6.503331 -15.525553 -1.912300 4.703818 -0.201294 -6.710792 -4.608972 0.739603 2.562339 11.224666 19.960786 23.353770 0.000000 0.000000 0.000000 -10.297393 0.711031 -3.101631 4.304222 -0.278085 0.471959 -10.858407 -25.147159 21.387941 0.000000 0.000000 0.000000 9.948462 -2.165543 25.453945 -6.723548 1.967164 -26.255511 -1.703842 10.093623 25.505772 10.816684 -4.616846 -25.546337 0.000000 0.000000 0.000000 -16.514156 -13.650012 5.956117 -48.827888 -21.381004 0.514483 -14.900242 -34.469649 6.313739 0.000000 0.000000 0.000000 21.561551 4.301195 1.487637 48.547328 23.527436 2.207656 7.233532 28.799096 3.065015 0.000000 0.000000 0.000000 
-0.170338 0.959927 0.085452 6.417993 -17.320399 -2.234342 2.714868 -0.415571 -7.794099 -3.662767 0.551241 -0.543258 7.228259 14.289271 21.882761 0.000000 0.000000 0.000000 -9.176057 0.673240 -1.731947 2.901470 -0.188714 -0.615727 -9.914735 -23.964567 19.949179 0.000000 0.000000 0.000000 9.637896 -1.977631 25.679190 -7.451243 2.122520 -25.485016 -1.703817 10.102676 25.775774 10.872756 -4.761944 -25.847572 0.000000 0.000000 0.000000 -16.868677 -14.639629 6.747552 -48.427968 -23.012712 1.110044 -11.743391 -33.085030 5.117765 0.000000 0.000000 0.000000 21.643906 4.791591 1.464195 49.254290 22.881598 2.066284 6.824254 28.153739 2.840874 0.000000 0.000000 0.000000 
-0.174750 0.959569 0.095765 5.855327 -18.640628 -2.632221 1.587872 -0.563576 -8.771215 -2.928864 0.452196 -2.423790 5.179804 11.428241 26.269625 0.000000 0.000000 0.000000 -8.243479 0.611678 -0.457269 2.665949 -0.169922 -0.809470 -9.433159 -23.282685 18.687261 0.000000 0.000000 0.000000 9.398158 -1.861868 26.857192 -8.166625 2.277891 -25.893437 -1.626053 9.295347 26.650820 10.830347 -5.003719 -26.024932 0.000000 0.000000 0.000000 -16.854746 -15.581416 7.622700 -47.708773 -24.901688 1.677590 -8.537869 -30.521114 3.832049 0.000000 0.000000 0.000000 21.620194 5.084531 1.208611 49.438295 21.970155 1.704308 7.479714 28.378287 2.949864 0.000000 0.000000 0.000000 
-0.177919 0.958539 0.105850 4.817415 -21.115133 -2.165000 1.944814 -0.531318 -9.625824 -2.074022 0.352928 -3.000351 5.416161 11.992287 36.186692 0.000000 0.000000 0.000000 -7.521921 0.603032 -0.304261 3.541614 -0.187110 -0.858255 -8.604360 -22.136112 17.241939 0.000000 0.000000 0.000000 8.311314 -1.479418 27.778062 -7.775732 2.123874 -25.841141 -1.558245 9.525912 26.493971 10.067978 -4.700503 -26.021516 0.000000 0.000000 0.000000 -17.164849 -16.040625 8.180005 -46.772178 -26.305507 2.104242 -6.489752 -28.924238 3.089229 0.000000 0.000000 0.000000 21.283328 5.310699 1.020822 50.651589 22.123871 1.948449 7.399434 27.730447 2.807206 0.000000 0.000000 0.000000 
-0.179782 0.957666 0.115958 3.683567 -23.249180 -1.750951 2.272256 -0.468182 -9.959598 -1.958148 0.347244 -3.203788 10.306055 17.440172 51.075025 0.000000 0.000000 0.000000 -6.213252 0.521389 -0.325174 3.319666 -0.147755 0.194370 -7.778258 -20.792107 15.136253 0.000000 0.000000 0.000000 7.244808 -1.088314 28.344070 -7.254727 1.951589 -26.445966 -1.278994 9.286961 27.416271 9.732131 -4.731038 -26.283570 0.000000 0.000000 0.000000 -17.336462 -15.849534 8.523940 -45.640786 -27.430444 2.241409 -5.202057 -28.144821 2.710048 0.000000 0.000000 0.000000 20.928342 5.779784 0.896418 50.738243 22.022865 1.885550 8.046979 28.512309 2.982661 0.000000 0.000000 0.000000 
-0.180579 0.956625 0.125854 2.732812 -25.268248 -0.891851 2.679882 -0.397601 -10.743075 -2.054016 0.358199 -2.548178 20.372123 24.875524 70.150912 0.000000 0.000000 0.000000 -5.428144 0.479718 -0.172406 3.456323 -0.131255 0.236504 -6.915199 -19.171224 12.932591 0.000000 0.000000 0.000000 6.314041 -0.730156 28.692024 -7.208027 1.888255 -26.617057 -1.511144 9.083597 27.901644 9.268246 -4.694188 -26.214846 0.000000 0.000000 0.000000 -17.147634 -15.669826 8.775516 -44.190692 -28.895403 2.491506 -4.156022 -27.759227 2.440770 0.000000 0.000000 0.000000 20.835602 5.990567 0.642271 51.718195 22.627090 2.234798 8.158413 28.810676 2.987859 0.000000 0.000000 0.000000 
